<svg width="39" height="19" viewBox="0 0 39 19" fill="none" xmlns="http://www.w3.org/2000/svg">
<rect x="4.56" y="1.51999" width="25.84" height="15.96" fill="#00B37E"/>
<circle cx="30.78" cy="9.49999" r="7.98" fill="#00B37E"/>
<path d="M4.56 1.14C4.56 0.510394 5.07039 0 5.7 0V0C6.3296 0 6.84 0.510395 6.84 1.14V17.86C6.84 18.4896 6.3296 19 5.7 19V19C5.07039 19 4.56 18.4896 4.56 17.86V1.14Z" fill="#00B37E"/>
<path d="M0 4.17999C0 3.55039 0.510395 3.03999 1.14 3.03999H5.7C6.3296 3.03999 6.84 3.55039 6.84 4.17999V4.17999C6.84 4.8096 6.3296 5.31999 5.7 5.31999H1.14C0.510396 5.31999 0 4.8096 0 4.17999V4.17999Z" fill="#00B37E"/>
<path d="M0 10.26C0 9.63039 0.510395 9.12 1.14 9.12H5.7C6.3296 9.12 6.84 9.63039 6.84 10.26V10.26C6.84 10.8896 6.3296 11.4 5.7 11.4H1.14C0.510396 11.4 0 10.8896 0 10.26V10.26Z" fill="#00B37E"/>
<path d="M0 15.58C0 14.9504 0.510395 14.44 1.14 14.44H5.7C6.3296 14.44 6.84 14.9504 6.84 15.58V15.58C6.84 16.2096 6.3296 16.72 5.7 16.72H1.14C0.510396 16.72 0 16.2096 0 15.58V15.58Z" fill="#00B37E"/>
</svg>
